<svg width="485" height="481" viewBox="0 0 485 481" fill="none" xmlns="http://www.w3.org/2000/svg">
<path d="M260.688 0.403937C266.906 3.83873 271.712 9.33431 276.438 14.5289C277.836 16.0421 279.235 17.5538 280.637 19.0641C281.32 19.8016 282.004 20.5391 282.708 21.299C285.489 24.2567 288.357 27.1193 291.25 29.9664C295.125 33.7829 298.812 37.6915 302.285 41.8805C303.807 43.6546 303.807 43.6546 306.688 45.4039C306.631 44.8243 306.575 44.2446 306.516 43.6473C306.275 41.0054 306.075 38.3619 305.875 35.7164C305.741 34.3484 305.741 34.3484 305.604 32.9528C305.285 28.3419 305.146 26.1787 307.863 22.2907C312.204 19.3906 315.651 19.6726 320.688 20.4039C325.404 22.0445 326.64 24.8694 328.702 29.1173C330.308 32.843 331.353 36.6723 332.375 40.5914C332.693 41.7622 332.693 41.7622 333.018 42.9567C334.53 48.5833 335.781 53.863 335.836 59.7203C335.898 73.3208 335.898 73.3208 342.188 84.7789C343.713 86.1387 345.242 87.4954 346.818 88.7955C349.895 91.4432 352.701 94.3568 355.553 97.2423C357.102 98.8088 358.66 100.366 360.229 101.913C364.37 105.998 368.301 110.177 372.093 114.587C374.346 117.154 376.744 119.517 379.188 121.904C382.259 124.904 385.17 127.929 387.969 131.185C391.984 135.822 396.315 140.105 400.688 144.404C405.658 149.291 410.464 154.215 415.008 159.502C417.757 162.615 420.719 165.502 423.688 168.404C427.286 171.922 430.781 175.461 434.062 179.279C438.042 183.889 442.347 188.136 446.688 192.404C451.658 197.291 456.464 202.215 461.008 207.502C463.757 210.615 466.723 213.498 469.688 216.404C471.492 218.205 473.294 220.01 475.095 221.815C476.437 223.154 477.791 224.48 479.148 225.802C482.148 228.9 484.085 231.124 484.375 235.529C483.13 242.545 478.778 246.756 473.688 251.404C473.027 251.404 472.368 251.404 471.688 251.404C471.688 252.064 471.688 252.724 471.688 253.404C470.219 254.849 470.219 254.849 468.188 256.529C463.784 260.274 459.733 264.279 455.688 268.404C451.128 273.053 446.497 277.501 441.562 281.752C438.808 284.179 436.247 286.774 433.688 289.404C430.526 292.653 427.315 295.76 423.875 298.716C419.247 302.72 414.976 307.042 410.688 311.404C405.791 316.384 400.856 321.203 395.559 325.755C392.63 328.336 389.912 331.111 387.188 333.904C383.827 337.348 380.429 340.668 376.781 343.81C372.539 347.476 368.611 351.403 364.688 355.404C360.158 360.022 355.558 364.436 350.656 368.658C347.35 371.59 344.28 374.75 341.188 377.904C336.888 382.25 332.584 386.465 327.906 390.404C324.537 393.441 321.378 396.682 318.188 399.904C313.886 404.248 309.584 408.464 304.906 412.404C301.537 415.441 298.378 418.682 295.188 421.904C290.886 426.248 286.584 430.464 281.906 434.404C278.537 437.441 275.378 440.682 272.188 443.904C264.337 451.831 264.337 451.831 260.688 454.904C258.065 457.155 255.574 459.471 253.156 461.939C252.505 462.598 251.854 463.257 251.184 463.935C249.89 465.252 248.6 466.573 247.316 467.9C235.839 479.596 235.839 479.596 227.5 480.904C219.21 479.817 213.98 471.652 208.614 465.738C204.499 461.218 200.22 456.889 195.875 452.591C191.635 448.394 187.532 444.189 183.688 439.623C180.015 435.549 176.054 431.753 172.158 427.894C168.478 424.235 164.966 420.527 161.621 416.556C158.221 412.771 154.559 409.236 150.924 405.677C147.905 402.703 145.016 399.678 142.25 396.466C138.596 392.234 134.678 388.318 130.688 384.404C126.079 379.884 121.677 375.295 117.465 370.404C114.364 366.914 111.019 363.672 107.688 360.404C103.069 355.874 98.6555 351.274 94.4336 346.373C91.5014 343.067 88.3434 339.995 85.1875 336.904C81.4038 333.198 77.7056 329.483 74.25 325.466C70.4453 321.054 66.3423 316.984 62.1875 312.904C57.3882 308.191 52.7724 303.423 48.3848 298.324C45.6286 295.206 42.6618 292.312 39.6875 289.404C36.0719 285.869 32.5603 282.31 29.2578 278.478C25.5538 274.188 21.5935 270.198 17.5625 266.216C16.8729 265.531 16.1832 264.846 15.4727 264.14C12.6007 261.287 9.72392 258.44 6.83984 255.599C3.531 252.224 1.1116 249.177 0 244.529C1.38757 238.222 6.79166 234.258 11.3047 229.92C11.942 229.3 12.5792 228.681 13.2358 228.043C14.5286 226.792 15.8336 225.553 17.1509 224.328C17.7508 223.75 18.3507 223.171 18.9688 222.576C19.516 222.061 20.0632 221.546 20.627 221.016C21.9245 219.432 21.9245 219.432 21.3882 217.342C21.157 216.703 20.9257 216.063 20.6875 215.404C20.0029 212.367 19.5265 209.524 19.6875 206.404C21.625 203.341 21.625 203.341 24.6875 201.404C28.9765 200.621 31.9894 200.939 35.6875 203.404C39.1483 203.092 40.9176 201.581 43.375 199.228C44.068 198.571 44.7609 197.913 45.4749 197.236C46.5701 196.174 46.5701 196.174 47.6875 195.091C48.4428 194.37 49.1981 193.649 49.9763 192.906C54.9658 188.124 59.8717 183.263 64.7273 178.345C67.2356 175.815 69.7804 173.393 72.5 171.091C76.6245 167.589 80.3832 163.745 84.1875 159.904C88.5269 155.522 92.8648 151.259 97.5859 147.287C101.255 143.999 104.677 140.453 108.122 136.933C108.654 136.392 109.186 135.852 109.734 135.295C110.24 134.778 110.746 134.262 111.267 133.729C112.688 132.404 112.688 132.404 115.094 130.963C117.053 129.398 117.053 129.398 116.859 126.173C116.651 124.215 116.651 124.215 116.438 122.216C116.31 120.768 116.187 119.318 116.066 117.869C115.968 116.757 115.968 116.757 115.868 115.622C114.746 101.815 115.667 88.1837 123.688 76.4039C124.832 75.1355 124.832 75.1355 126 73.8414C127.955 71.5372 127.955 71.5372 127.59 68.775C126.407 64.3574 124.322 60.9022 121.938 57.0289C121.507 56.3122 121.076 55.5955 120.633 54.8571C118.045 50.5639 115.383 46.3205 112.676 42.101C111.365 39.8498 110.887 37.9985 110.688 35.4039C110.543 34.2902 110.399 33.1764 110.25 32.0289C110.857 26.9988 112.96 24.7359 116.688 21.4039C120.57 18.876 124.627 16.7611 128.75 14.6539C130.887 13.5348 133.024 12.4151 135.16 11.2946C136.101 10.8102 137.042 10.3258 138.012 9.82679C139.819 8.86592 141.592 7.8398 143.329 6.75696C148.296 3.90754 154.188 4.58784 159.688 5.40394C163.242 7.00721 165.234 9.41532 167.688 12.4039C168.208 13.0262 168.728 13.6485 169.265 14.2897C172.742 18.4549 176.151 22.6692 179.508 26.9327C180.613 28.3656 180.613 28.3656 181.688 29.4039C183.155 29.5127 184.627 29.5597 186.098 29.5797C187.46 29.6155 187.46 29.6155 188.85 29.652C190.756 29.6943 192.662 29.7259 194.568 29.7457C200.543 29.9263 205.843 30.617 210.688 34.4039C211.018 35.3939 211.347 36.3839 211.688 37.4039C216.216 33.5839 220.523 29.6198 224.688 25.4039C227.583 22.4728 230.49 19.6399 233.625 16.9664C238.096 13.1527 242.165 8.95691 246.27 4.75941C250.97 0.180338 254.358 -0.640291 260.688 0.403937Z" fill="#030201"/>
<path d="M334.688 105.404C339.792 109.628 344.343 114.083 348.812 118.966C353.672 124.219 358.595 129.377 363.688 134.404C366.926 137.604 370.121 140.799 373.062 144.279C376.54 148.386 380.367 152.12 384.188 155.904C388.531 160.206 392.748 164.507 396.688 169.185C400.318 173.213 404.225 176.979 408.096 180.775C411.243 183.879 414.271 187.023 417.156 190.373C420.798 194.596 424.708 198.501 428.688 202.404C432.649 206.29 436.542 210.173 440.16 214.384C444.577 219.516 449.46 224.159 454.342 228.843C455.377 229.858 455.377 229.858 456.434 230.892C457.059 231.496 457.685 232.1 458.33 232.722C459.688 234.404 459.688 234.404 459.688 237.404C458.289 238.877 458.289 238.877 456.312 240.466C452.075 244.008 448.226 247.824 444.375 251.779C442.276 253.829 440.159 255.744 437.938 257.654C433.291 261.681 428.997 266.021 424.688 270.404C419.781 275.394 414.836 280.224 409.527 284.787C406.783 287.199 404.235 289.786 401.688 292.404C398.505 295.674 395.271 298.8 391.812 301.779C387.561 305.456 383.622 309.393 379.688 313.404C375.148 318.032 370.538 322.458 365.625 326.689C362.503 329.453 359.601 332.424 356.688 335.404C353.149 339.023 349.587 342.537 345.75 345.841C341.517 349.495 337.601 353.414 333.688 357.404C329.148 362.032 324.538 366.458 319.625 370.689C316.503 373.453 313.601 376.424 310.688 379.404C307.159 383.013 303.609 386.517 299.781 389.81C295.36 393.627 291.278 397.739 287.188 401.904C282.474 406.703 277.707 411.319 272.607 415.707C269.49 418.463 266.597 421.431 263.688 424.404C256.456 431.72 256.456 431.72 252.75 434.841C250.075 437.148 247.51 439.517 245.012 442.013C244.009 443.014 244.009 443.014 242.986 444.035C241.015 446.014 239.045 447.995 237.078 449.978C236.487 450.573 235.896 451.168 235.287 451.78C233.962 453.125 232.658 454.491 231.359 455.861C229.688 457.404 229.688 457.404 227.688 457.404C226.242 455.935 226.242 455.935 224.562 453.904C220.818 449.5 216.812 445.449 212.688 441.404C208.049 436.854 203.612 432.234 199.371 427.31C196.776 424.372 193.99 421.643 191.188 418.904C187.778 415.537 184.403 412.196 181.312 408.529C177.264 403.748 172.749 399.416 168.28 395.033C165.133 391.929 162.104 388.785 159.219 385.435C155.577 381.212 151.667 377.307 147.688 373.404C143.729 369.521 139.837 365.641 136.219 361.435C132.426 357.032 128.332 352.974 124.188 348.904C119.388 344.191 114.772 339.423 110.385 334.324C107.628 331.206 104.66 328.314 101.688 325.404C94.3718 318.172 94.3718 318.172 91.25 314.466C87.227 309.703 82.7279 305.395 78.2795 301.033C75.1326 297.929 72.1042 294.785 69.2187 291.435C65.5768 287.212 61.6672 283.307 57.6875 279.404C53.7357 275.528 49.8525 271.657 46.25 267.451C43.7098 264.498 41.0533 261.749 38.25 259.045C37.5011 258.321 36.7521 257.598 35.9805 256.853C34.4277 255.364 32.8676 253.882 31.3008 252.408C30.5621 251.69 29.8235 250.972 29.0625 250.232C28.3896 249.592 27.7167 248.951 27.0234 248.292C25.6875 246.404 25.6875 246.404 25.8201 244.326C27.2104 241.245 29.7349 239.314 32.25 237.154C32.7701 236.695 33.2903 236.236 33.8262 235.763C35.1065 234.636 36.3961 233.519 37.6875 232.404C44.5031 236.683 51.2281 241.078 57.9106 245.561C62.8618 248.874 67.8713 252.088 72.9006 255.281C76.0253 257.282 79.0206 259.362 81.9375 261.654C96.7458 273.011 117.337 277.206 135.648 275.056C141.936 274.114 147.697 272.495 153.688 270.404C153.883 271.232 153.883 271.232 154.083 272.078C155.163 276.643 156.249 281.206 157.344 285.767C158.116 288.989 158.874 292.213 159.594 295.447C163.815 313.681 170.305 331.17 178.375 348.029C178.909 349.148 179.443 350.268 179.994 351.421C182.704 356.925 185.555 361.859 189.368 366.665C191.273 369.176 192.612 371.893 194 374.716C198.446 383.167 203.716 390.824 211.879 395.97C214.384 397.956 216.154 400.331 218.125 402.841C223.547 409.681 229.249 414.692 237.688 417.404C243.903 418.095 248.634 417.257 253.688 413.404C255.772 410.937 257.188 408.253 258.688 405.404C259.158 404.658 259.629 403.911 260.113 403.142C274.451 379.543 274.008 349.409 275.598 322.732C276.107 314.322 276.671 305.974 277.77 297.619C278.883 289.013 278.915 280.506 278.812 271.841C278.802 270.329 278.793 268.817 278.785 267.304C278.764 263.671 278.729 260.037 278.688 256.404C279.888 256.863 281.088 257.322 282.324 257.795C317.611 270.925 366.325 278.437 402.113 263.216C409.511 259.713 417.74 253.316 422 246.216C423.438 240.334 422.465 235.207 419.375 230.029C417.879 227.836 416.782 226.473 414.625 224.904C412.434 223.208 412.063 222.163 411 219.654C408.448 214.298 404.492 211.699 399.688 208.404C398.649 207.642 397.61 206.88 396.539 206.095C388.241 200.151 379.573 195.806 370.189 191.803C365.435 189.76 361.664 187.77 357.688 184.404C355.636 183.341 353.549 182.342 351.438 181.404C350.294 180.89 349.151 180.375 347.973 179.845C346.026 178.991 344.076 178.142 342.121 177.306C337.706 175.409 333.764 173.256 329.738 170.634C326.836 168.893 323.789 167.597 320.668 166.298C318.688 165.404 318.688 165.404 315.688 163.404C316.289 158.828 318.226 155.223 320.375 151.216C327.872 136.662 331.669 121.418 334.688 105.404Z" fill="#EE4F2E"/>
<path d="M196.688 148.404C200.553 151.686 204.358 155.003 208.062 158.466C219.307 168.583 231.285 177.373 244.688 184.404C244.522 184.92 244.358 185.435 244.188 185.966C242.784 192.809 244.345 198.854 246 205.466C250.115 222.789 251.868 240.35 253.686 258.039C253.861 259.736 253.861 259.736 254.039 261.466C254.14 262.468 254.242 263.47 254.346 264.502C254.574 266.436 254.856 268.365 255.194 270.283C255.772 273.94 256.037 277.579 256.234 281.271C256.276 282.045 256.318 282.82 256.361 283.617C256.831 293.2 256.91 302.786 256.928 312.379C256.937 315.504 256.969 318.63 257 321.755C257.111 342.947 255.865 365.534 248.125 385.466C247.809 386.306 247.492 387.146 247.166 388.011C244.92 393.94 244.92 393.94 243.688 396.404C243.007 396.115 242.326 395.826 241.625 395.529C238.612 394.292 238.612 394.292 235 393.591C233.907 393.2 232.814 392.808 231.688 392.404C231.397 391.643 231.107 390.883 230.809 390.099C229.358 386.612 227.446 385.339 224.438 383.091C216.897 377.124 212.69 370.837 208.375 362.31C206.949 359.854 205.48 357.846 203.719 355.638C200.493 351.416 198.834 347.167 197.188 342.154C195.297 336.696 193.381 331.499 190.625 326.404C184.699 315.105 181.804 302.195 178.625 289.904C177.403 285.343 175.982 280.855 174.559 276.353C173.772 273.69 173.162 271.064 172.625 268.341C171.955 265.06 171.058 262.882 168.688 260.404C169.978 257.694 171.399 255.267 173.148 252.83C173.856 251.827 173.856 251.827 174.578 250.804C175.556 249.429 176.538 248.057 177.523 246.687C183.615 238.022 186.35 229.722 188.25 219.341C188.459 218.24 188.668 217.139 188.884 216.005C189.3 213.81 189.712 211.614 190.119 209.418C190.609 206.818 191.129 204.228 191.672 201.638C193.095 194.757 194.002 188.293 193.598 181.248C193.693 178.225 194.418 175.621 195.2 172.714C196.159 168.17 196.167 163.533 196.312 158.904C196.351 157.891 196.39 156.878 196.43 155.834C196.523 153.357 196.609 150.881 196.688 148.404Z" fill="#F1E8BF"/>
<path d="M150.687 27.4039C152.414 29.5289 152.414 29.5289 154.312 32.4039C159.924 40.3497 165.568 46.726 175.297 49.0836C178.091 49.458 180.643 49.247 183.414 48.7438C186.41 48.296 189.347 48.2118 192.375 48.1539C193.99 48.1153 193.99 48.1153 195.637 48.0758C203.757 48.9492 211.87 57.029 216.898 63.0524C218.889 65.7983 220.788 68.5942 222.687 71.4039C224.04 73.1763 225.394 74.9471 226.75 76.7164C231.238 82.8784 234.394 89.5533 237.687 96.4039C241.84 104.817 246.504 112.142 252.355 119.431C258.687 127.503 258.687 127.503 258.687 130.404C241.168 135.595 224.001 132.216 208.199 123.658C204.137 121.63 199.853 120.204 195.57 118.713C191.655 116.935 189.544 114.546 187 111.154C183.919 108.823 181.679 108.773 177.883 108.955C174.225 109.703 172.729 111.375 170.687 114.404C169.854 117.361 169.854 117.361 170.687 120.404C171.946 121.856 173.209 123.307 174.516 124.716C176.295 127.279 176.339 129.708 176.449 132.767C176.662 135.124 177.103 137.142 177.68 139.427C180.525 151.849 180.918 167.686 175.172 179.267C173.555 181.594 171.756 183.473 169.687 185.404C164.303 181.913 161.977 177.14 159 171.654C157.947 169.759 156.891 167.866 155.832 165.974C155.307 165.035 154.782 164.095 154.241 163.128C151.627 158.545 148.82 154.091 145.986 149.643C144.877 147.902 143.779 146.155 142.687 144.404C142.138 143.533 142.138 143.533 141.577 142.644C139.187 138.701 137.926 135.167 137.062 130.654C136.827 129.432 136.591 128.21 136.348 126.951C136.13 125.78 135.912 124.61 135.687 123.404C135.48 122.46 135.272 121.517 135.059 120.545C132.688 109.339 132.022 97.7147 137.687 87.4039C139.398 85.3437 141.216 83.4396 143.066 81.5055C146.543 76.9979 147.825 71.2639 147.555 65.6383C146.338 61.0986 144.148 57.3348 141.812 53.2789C141.365 52.481 140.918 51.6831 140.457 50.861C137.954 46.4314 137.954 46.4314 135.034 42.2731C133.687 40.4039 133.687 40.4039 133.695 38.3805C135.097 35.5888 136.968 34.4857 139.562 32.7789C140.447 32.1885 141.331 31.5981 142.242 30.9899C143.049 30.4665 143.856 29.9431 144.687 29.4039C147.687 27.4039 147.687 27.4039 150.687 27.4039Z" fill="#FDE702"/>
<path d="M302.688 175.404C305.082 176.468 306.893 177.576 308.914 179.267C311.936 181.596 314.944 183.178 318.375 184.841C319.622 185.451 320.87 186.06 322.117 186.67C323.295 187.242 324.474 187.814 325.688 188.404C327.46 189.297 329.231 190.193 331 191.091C333.963 192.583 336.939 193.941 340 195.216C343.784 196.855 347.104 198.911 350.563 201.154C355.853 204.508 361.111 206.882 366.938 209.154C379.172 214 389.42 221.521 399.233 230.2C400.693 231.501 400.693 231.501 402.688 232.404C403.418 234.718 404.089 237.052 404.688 239.404C394.14 250.633 380.462 252.577 365.688 253.404C341.195 254.076 313.654 251.564 290.834 242.267C289.354 241.672 287.86 241.11 286.357 240.576C273.605 235.983 273.605 235.983 270.551 230.283C268.745 225.285 267.933 220.148 267.141 214.91C266.454 211.114 265.204 207.579 263.875 203.966C262.402 199.91 261.404 196.733 261.688 192.404C262.739 192.486 263.791 192.569 264.875 192.654C276.514 192.593 292.262 186.228 300.563 177.966C301.614 176.698 301.614 176.698 302.688 175.404Z" fill="#F1E8BE"/>
<path d="M123.688 149.404C126.688 150.404 126.688 150.404 127.828 152.338C128.557 153.983 129.286 155.629 130.016 157.275C131.486 160.027 133.058 162.386 134.875 164.912C139.579 171.518 143.466 178.557 147.437 185.619C148.407 187.34 149.383 189.057 150.359 190.775C150.928 191.785 151.496 192.795 152.081 193.835C153.465 196.049 154.749 197.681 156.688 199.404C155.295 202.707 153.811 204.354 150.906 206.427C150.152 206.971 149.398 207.514 148.621 208.074C147.818 208.637 147.015 209.199 146.188 209.779C145.365 210.359 144.542 210.939 143.694 211.536C142.073 212.672 140.449 213.802 138.821 214.926C137.156 216.079 135.51 217.258 133.871 218.447C126.607 223.361 118.176 224.797 109.688 226.404C108.679 226.596 107.671 226.788 106.633 226.986C87.9669 229.635 73.2794 224.222 57.6875 214.404C57.6875 213.744 57.6875 213.084 57.6875 212.404C59.0156 211.099 59.0156 211.099 60.9375 209.529C65.2402 205.882 69.1895 201.967 73.1221 197.932C75.8383 195.169 78.626 192.558 81.5625 190.029C85.8137 186.352 89.7532 182.415 93.6875 178.404C98.2163 173.787 102.814 169.371 107.715 165.15C111.014 162.23 114.095 159.102 117.188 155.966C117.819 155.33 118.451 154.694 119.102 154.039C120.633 152.496 122.16 150.95 123.688 149.404Z" fill="#ED4E2E"/>
<path d="M257.688 23.4039C258.922 24.6617 258.922 24.6617 260.438 26.5289C263.981 30.713 267.789 34.5557 271.688 38.4039C279.034 45.6728 279.034 45.6728 282.125 49.3414C284.43 52.0444 286.811 54.5134 289.438 56.9039C290.123 57.5498 290.808 58.1957 291.514 58.8612C292.895 60.1562 294.293 61.4325 295.711 62.6869C300.419 67.1444 300.419 67.1444 301.165 70.6459C301.199 72.9624 301.023 75.1131 300.688 77.4039C300.541 78.5422 300.394 79.6804 300.242 80.8531C297.6 93.4392 293.438 104.8 284.688 114.404C284.062 115.097 283.437 115.791 282.793 116.505C279.42 120.07 279.42 120.07 277.688 121.404C276.697 121.404 275.707 121.404 274.688 121.404C272.961 119.201 272.961 119.201 271.062 116.154C268.362 111.847 265.487 107.85 262.359 103.838C257.579 97.5148 254.045 90.8373 250.562 83.7164C246.584 75.61 242.603 68.2605 236.688 61.4039C236.227 60.8666 235.767 60.3293 235.293 59.7758C234.131 58.4473 232.942 57.1431 231.75 55.8414C230.978 54.9945 230.206 54.1476 229.41 53.275C228.842 52.6576 228.273 52.0401 227.688 51.4039C234.738 43.0376 234.738 43.0376 237.688 40.4039C238.348 40.4039 239.007 40.4039 239.688 40.4039C239.688 39.7439 239.688 39.0839 239.688 38.4039C241.156 36.9586 241.156 36.9586 243.188 35.2789C247.037 32.025 250.548 28.5562 254.023 24.9078C255.688 23.4039 255.688 23.4039 257.688 23.4039Z" fill="#EE4F2E"/>
<path d="M316.688 87.4039C317.018 87.4039 317.347 87.4039 317.688 87.4039C318.647 114.261 309.994 143.318 291.562 163.216C284.878 169.662 276.167 174.875 266.688 175.404C264.029 174.569 261.747 173.703 259.25 172.529C258.556 172.212 257.861 171.894 257.146 171.567C244.708 165.738 233.931 158.541 223.688 149.404C227.299 148.154 229.979 148.715 233.688 149.404C255.853 150.994 277.631 144.291 294.504 129.849C306.416 118.71 312.79 102.901 316.688 87.4039Z" fill="#FCE77E"/>
<path d="M170.688 213.404C171.629 225.881 165.498 235.541 157.948 244.941C155.246 248.077 152.265 250.362 148.688 252.404C148.007 252.8 147.326 253.195 146.625 253.603C136.215 259.222 121.131 259.346 109.844 256.24C102.625 253.905 96.6945 251.09 90.6875 246.404C90.6875 246.074 90.6875 245.744 90.6875 245.404C91.876 245.318 93.0645 245.231 94.2891 245.142C120.194 243.038 139.199 237.208 159.631 221.021C161.786 219.326 163.956 217.655 166.141 215.998C166.797 215.499 167.454 215.001 168.13 214.488C169.688 213.404 169.688 213.404 170.688 213.404Z" fill="#FCE87E"/>
<path d="M190.687 254.404C192.007 254.404 193.327 254.404 194.687 254.404C195.931 256.892 195.892 258.731 196.012 261.513C196.804 276.624 199.007 290.046 203.687 304.404C204.146 305.843 204.604 307.283 205.062 308.723C212.257 331.279 219.872 352.927 233.641 372.443C233.986 373.09 234.332 373.737 234.687 374.404C234.192 375.889 234.192 375.889 233.687 377.404C230.772 377.079 229.152 376.895 227.098 374.724C226.653 374 226.208 373.275 225.75 372.529C225.243 371.707 224.737 370.884 224.215 370.037C223.711 369.168 223.207 368.299 222.687 367.404C222.214 366.597 221.741 365.79 221.254 364.959C219.663 362.139 218.169 359.282 216.687 356.404C216.104 355.308 215.52 354.213 214.918 353.084C207.637 338.895 203.096 323.537 198.314 308.374C197.731 306.54 197.131 304.71 196.531 302.881C191.425 287.294 188.646 271.902 189.687 255.404C190.017 255.074 190.347 254.744 190.687 254.404Z" fill="#FED783"/>
<path d="M287.688 220.404C291.722 220.894 295.011 223.182 298.438 225.216C300.842 226.634 303.256 228.032 305.688 229.404C306.314 229.759 306.94 230.115 307.585 230.481C312.687 233.218 317.641 234.54 323.312 235.591C324.113 235.756 324.914 235.92 325.738 236.089C339.264 238.712 353.159 238.643 366.887 238.922C368.126 238.956 369.364 238.99 370.641 239.025C371.756 239.05 372.871 239.075 374.021 239.101C376.688 239.404 376.688 239.404 378.688 241.404C378.312 243.529 378.312 243.529 377.688 245.404C321.201 245.955 321.201 245.955 301.5 234.45C299.711 233.418 297.899 232.454 296.066 231.502C287.925 227.119 287.925 227.119 286.809 223.759C286.769 222.982 286.729 222.205 286.688 221.404C287.018 221.074 287.347 220.744 287.688 220.404Z" fill="#FDD884"/>
<path d="M257.688 23.4039C257.688 24.0639 257.688 24.7239 257.688 25.4039C256.307 26.7635 256.307 26.7635 254.344 28.3766C249.005 32.9164 244.117 37.8653 239.188 42.8414C237.811 44.2249 237.811 44.2249 236.406 45.6364C234.164 47.8899 231.925 50.1458 229.688 52.4039C229.027 51.7439 228.368 51.0839 227.688 50.4039C229.306 48.7313 230.933 47.066 232.562 45.4039C233.467 44.4758 234.372 43.5477 235.305 42.5914C237.688 40.4039 237.688 40.4039 239.688 40.4039C239.688 39.7439 239.688 39.0839 239.688 38.4039C241.156 36.9586 241.156 36.9586 243.188 35.2789C247.037 32.025 250.548 28.5562 254.023 24.9078C255.688 23.4039 255.688 23.4039 257.688 23.4039Z" fill="#CC4327"/>
<path d="M37.6875 232.404C38.3475 233.064 39.0075 233.724 39.6875 234.404C39.1448 234.874 38.6021 235.345 38.043 235.83C37.3275 236.452 36.6121 237.075 35.875 237.716C35.1673 238.331 34.4596 238.946 33.7305 239.58C29.4808 243.25 29.4808 243.25 27.6875 248.404C27.0275 247.744 26.3675 247.084 25.6875 246.404C25.7367 243.174 26.9223 242.162 29.1914 239.826C30.2032 238.926 31.2231 238.036 32.25 237.154C32.7701 236.695 33.2903 236.236 33.8262 235.763C35.1065 234.636 36.3961 233.519 37.6875 232.404Z" fill="#C74226"/>
</svg>
